<mxfile host="app.diagrams.net" modified="2024-05-20T03:58:21.188Z" agent="Mozilla/5.0 (Macintosh; Intel Mac OS X 10.15; rv:126.0) Gecko/20100101 Firefox/126.0" version="24.4.4" etag="D_f-64tIEvJuCY1Xx5SR" type="github">
  <diagram name="Halaman-1" id="ypR_K8Tb2srGChPrR1gw">
    <mxGraphModel>
      <root>
        <mxCell id="0" />
        <mxCell id="1" parent="0" />
      </root>
    </mxGraphModel>
  </diagram>
</mxfile>
